<svg id="visual" viewBox="0 0 2560 900" width="2560" height="900" xmlns="http://www.w3.org/2000/svg" xmlns:xlink="http://www.w3.org/1999/xlink" version="1.1"><path d="M0 590L171 586L341 504L512 284L683 522L853 517L1024 490L1195 504L1365 559L1536 267L1707 478L1877 485L2048 424L2219 556L2389 483L2560 426L2560 901L2389 901L2219 901L2048 901L1877 901L1707 901L1536 901L1365 901L1195 901L1024 901L853 901L683 901L512 901L341 901L171 901L0 901Z" fill="#f50a83"></path><path d="M0 615L171 482L341 479L512 454L683 498L853 569L1024 606L1195 385L1365 634L1536 550L1707 551L1877 595L2048 381L2219 439L2389 540L2560 556L2560 901L2389 901L2219 901L2048 901L1877 901L1707 901L1536 901L1365 901L1195 901L1024 901L853 901L683 901L512 901L341 901L171 901L0 901Z" fill="#c91e83"></path><path d="M0 497L171 430L341 671L512 545L683 502L853 624L1024 490L1195 494L1365 405L1536 625L1707 436L1877 646L2048 411L2219 442L2389 465L2560 499L2560 901L2389 901L2219 901L2048 901L1877 901L1707 901L1536 901L1365 901L1195 901L1024 901L853 901L683 901L512 901L341 901L171 901L0 901Z" fill="#9e277c"></path><path d="M0 665L171 521L341 544L512 625L683 644L853 695L1024 650L1195 709L1365 663L1536 710L1707 526L1877 487L2048 677L2219 616L2389 591L2560 583L2560 901L2389 901L2219 901L2048 901L1877 901L1707 901L1536 901L1365 901L1195 901L1024 901L853 901L683 901L512 901L341 901L171 901L0 901Z" fill="#74296e"></path><path d="M0 721L171 586L341 743L512 576L683 591L853 671L1024 613L1195 552L1365 685L1536 669L1707 666L1877 729L2048 618L2219 597L2389 689L2560 639L2560 901L2389 901L2219 901L2048 901L1877 901L1707 901L1536 901L1365 901L1195 901L1024 901L853 901L683 901L512 901L341 901L171 901L0 901Z" fill="#4f265b"></path><path d="M0 644L171 624L341 791L512 776L683 650L853 734L1024 760L1195 738L1365 723L1536 710L1707 766L1877 768L2048 621L2219 751L2389 703L2560 644L2560 901L2389 901L2219 901L2048 901L1877 901L1707 901L1536 901L1365 901L1195 901L1024 901L853 901L683 901L512 901L341 901L171 901L0 901Z" fill="#2f1f43"></path><path d="M0 792L171 724L341 706L512 717L683 725L853 760L1024 741L1195 719L1365 795L1536 749L1707 771L1877 813L2048 829L2219 798L2389 750L2560 778L2560 901L2389 901L2219 901L2048 901L1877 901L1707 901L1536 901L1365 901L1195 901L1024 901L853 901L683 901L512 901L341 901L171 901L0 901Z" fill="#181428"></path><path d="M0 770L171 803L341 827L512 783L683 815L853 801L1024 823L1195 867L1365 857L1536 830L1707 845L1877 845L2048 826L2219 845L2389 806L2560 848L2560 901L2389 901L2219 901L2048 901L1877 901L1707 901L1536 901L1365 901L1195 901L1024 901L853 901L683 901L512 901L341 901L171 901L0 901Z" fill="#000009"></path></svg>