<svg id="visual" viewBox="0 0 2560 900" width="2560" height="900" xmlns="http://www.w3.org/2000/svg" xmlns:xlink="http://www.w3.org/1999/xlink" version="1.1"><path d="M0 496L160 495L320 498L480 622L640 644L800 632L960 525L1120 530L1280 488L1440 523L1600 626L1760 515L1920 576L2080 657L2240 482L2400 602L2560 558L2560 0L2400 0L2240 0L2080 0L1920 0L1760 0L1600 0L1440 0L1280 0L1120 0L960 0L800 0L640 0L480 0L320 0L160 0L0 0Z" fill="#f50a83"></path><path d="M0 479L160 487L320 598L480 440L640 416L800 517L960 447L1120 587L1280 470L1440 582L1600 526L1760 563L1920 480L2080 446L2240 489L2400 411L2560 468L2560 0L2400 0L2240 0L2080 0L1920 0L1760 0L1600 0L1440 0L1280 0L1120 0L960 0L800 0L640 0L480 0L320 0L160 0L0 0Z" fill="#cf1c83"></path><path d="M0 508L160 435L320 424L480 354L640 484L800 366L960 353L1120 370L1280 406L1440 437L1600 428L1760 475L1920 365L2080 443L2240 350L2400 513L2560 397L2560 0L2400 0L2240 0L2080 0L1920 0L1760 0L1600 0L1440 0L1280 0L1120 0L960 0L800 0L640 0L480 0L320 0L160 0L0 0Z" fill="#a9257e"></path><path d="M0 405L160 404L320 391L480 455L640 393L800 353L960 339L1120 296L1280 335L1440 384L1600 424L1760 461L1920 416L2080 403L2240 309L2400 367L2560 388L2560 0L2400 0L2240 0L2080 0L1920 0L1760 0L1600 0L1440 0L1280 0L1120 0L960 0L800 0L640 0L480 0L320 0L160 0L0 0Z" fill="#832974"></path><path d="M0 394L160 382L320 385L480 238L640 331L800 360L960 370L1120 294L1280 391L1440 386L1600 275L1760 281L1920 323L2080 245L2240 305L2400 298L2560 298L2560 0L2400 0L2240 0L2080 0L1920 0L1760 0L1600 0L1440 0L1280 0L1120 0L960 0L800 0L640 0L480 0L320 0L160 0L0 0Z" fill="#612865"></path><path d="M0 323L160 206L320 220L480 234L640 221L800 209L960 240L1120 233L1280 202L1440 238L1600 226L1760 253L1920 313L2080 268L2240 297L2400 243L2560 294L2560 0L2400 0L2240 0L2080 0L1920 0L1760 0L1600 0L1440 0L1280 0L1120 0L960 0L800 0L640 0L480 0L320 0L160 0L0 0Z" fill="#422452"></path><path d="M0 252L160 241L320 199L480 254L640 211L800 197L960 221L1120 220L1280 255L1440 207L1600 135L1760 198L1920 229L2080 193L2240 137L2400 177L2560 130L2560 0L2400 0L2240 0L2080 0L1920 0L1760 0L1600 0L1440 0L1280 0L1120 0L960 0L800 0L640 0L480 0L320 0L160 0L0 0Z" fill="#291c3c"></path><path d="M0 124L160 91L320 94L480 111L640 127L800 116L960 79L1120 172L1280 139L1440 171L1600 98L1760 125L1920 181L2080 114L2240 186L2400 89L2560 146L2560 0L2400 0L2240 0L2080 0L1920 0L1760 0L1600 0L1440 0L1280 0L1120 0L960 0L800 0L640 0L480 0L320 0L160 0L0 0Z" fill="#151325"></path><path d="M0 53L160 109L320 111L480 22L640 51L800 99L960 43L1120 84L1280 51L1440 97L1600 68L1760 107L1920 54L2080 102L2240 60L2400 79L2560 41L2560 0L2400 0L2240 0L2080 0L1920 0L1760 0L1600 0L1440 0L1280 0L1120 0L960 0L800 0L640 0L480 0L320 0L160 0L0 0Z" fill="#000009"></path></svg>